<?xml version="1.0" encoding="UTF-8" standalone="no"?>
<svg
   xmlns:dc="http://purl.org/dc/elements/1.1/"
   xmlns:cc="http://creativecommons.org/ns#"
   xmlns:rdf="http://www.w3.org/1999/02/22-rdf-syntax-ns#"
   xmlns:svg="http://www.w3.org/2000/svg"
   xmlns="http://www.w3.org/2000/svg"
   width="150mm"
   height="35mm"
   viewBox="0 0 150 35"
   version="1.1"
   id="svg1248">
  <defs
     id="defs1242" />
  <metadata
     id="metadata1245">
    <rdf:RDF>
      <cc:Work
         rdf:about="">
        <dc:format>image/svg+xml</dc:format>
        <dc:type
           rdf:resource="http://purl.org/dc/dcmitype/StillImage" />
        <dc:title></dc:title>
      </cc:Work>
    </rdf:RDF>
  </metadata>
  <g
     id="layer1">
    <g
       id="g2374">
      <rect
         style="fill:#ffffff;fill-opacity:0;stroke-width:1.61303"
         id="rect2307"
         width="150"
         height="35"
         x="-1.4404905e-07"
         y="-1.5968683e-06" />
      <g
         id="g2305"
         transform="matrix(0.87232077,0,0,0.87232077,-25.315484,-423.75335)">
        <path
           id="path2181"
           style="fill:#393939;fill-opacity:1;stroke-width:0.717179"
           d="m 45.433536,507.60964 -5.790289,7.42782 0.625848,0.48773 6.240305,-8.00525 z" />
        <path
           id="path2183"
           style="fill:#393939;fill-opacity:1;stroke-width:0.549119"
           d="m 40.409037,518.67635 a 2.4549284,2.4549284 0 0 1 -3.471594,0.0419 2.4549284,2.4549284 0 0 1 -0.04206,-3.47145 2.4549284,2.4549284 0 0 1 3.471599,-0.0422 2.4549284,2.4549284 0 0 1 0.04206,3.47173 z m -1.091032,-1.05924 a 0.93439484,0.93439484 0 0 0 0.003,-0.003 0.93439484,0.93439484 0 0 0 -0.01601,-1.3214 0.93439484,0.93439484 0 0 0 -1.321257,0.0161 0.93439484,0.93439484 0 0 0 0.01601,1.32111 0.93439484,0.93439484 0 0 0 1.318401,-0.0129 z" />
        <rect
           style="fill:#393939;fill-opacity:1;stroke-width:0.717179"
           id="rect2185"
           width="21.820312"
           height="0.79346585"
           x="-80.267639"
           y="500.77286"
           transform="rotate(-14.659867)" />
        <path
           id="path2187"
           style="fill:#393939;fill-opacity:1;stroke-width:1.30337"
           d="m 76.60175,503.63959 a 5.826917,5.826917 0 0 0 3.783961,-7.32051 5.826917,5.826917 0 0 0 -7.320077,-3.78409 5.826917,5.826917 0 0 0 -3.784519,7.32021 5.826917,5.826917 0 0 0 7.320635,3.78439 z m -1.085908,-3.44209 a 2.2178411,2.2178411 0 0 1 -0.0097,0.003 2.2178411,2.2178411 0 0 1 -2.786346,-1.4404 2.2178411,2.2178411 0 0 1 1.440536,-2.78592 2.2178411,2.2178411 0 0 1 2.785776,1.44011 2.2178411,2.2178411 0 0 1 -1.430706,2.78326 z" />
        <path
           id="path2189"
           style="fill:#393939;fill-opacity:1;stroke-width:0.717179"
           d="m 49.371801,507.50298 -0.525578,0.59453 3.980365,3.52017 0.07374,-0.99426 z" />
        <path
           id="path2191"
           style="fill:#393939;fill-opacity:1;stroke-width:0.54912"
           d="m 52.775349,514.56858 a 2.4549314,2.4549314 0 0 1 -0.794519,-3.37972 2.4549314,2.4549314 0 0 1 3.379559,-0.79463 2.4549314,2.4549314 0 0 1 0.794782,3.37967 2.4549314,2.4549314 0 0 1 -3.379822,0.79468 z m 0.797138,-1.29495 a 0.93439598,0.93439598 0 0 0 0.0035,0.002 0.93439598,0.93439598 0 0 0 1.286413,-0.30247 0.93439598,0.93439598 0 0 0 -0.302574,-1.28624 0.93439598,0.93439598 0 0 0 -1.286145,0.3024 0.93439598,0.93439598 0 0 0 0.298825,1.28416 z" />
        <path
           id="path2195"
           style="fill:#393939;fill-opacity:1;stroke-width:0.549122"
           d="m 41.342863,498.54267 a 2.4549402,2.4549402 0 0 1 0.378598,3.45116 2.4549402,2.4549402 0 0 1 -3.451016,0.37873 2.4549402,2.4549402 0 0 1 -0.378864,-3.45114 2.4549402,2.4549402 0 0 1 3.451282,-0.37875 z m -0.948365,1.18869 a 0.93439932,0.93439932 0 0 0 -0.0029,-0.002 0.93439932,0.93439932 0 0 0 -1.313613,0.14416 0.93439932,0.93439932 0 0 0 0.14428,1.31346 0.93439932,0.93439932 0 0 0 1.313341,-0.14413 0.93439932,0.93439932 0 0 0 -0.140818,-1.31093 z" />
        <path
           id="path2197"
           style="fill:#393939;fill-opacity:1;stroke-width:0.696819"
           d="m 47.367442,503.29831 a 3.1152257,3.1152257 0 0 0 -3.337041,2.87647 3.1152257,3.1152257 0 0 0 2.876224,3.33702 3.1152257,3.1152257 0 0 0 3.337265,-2.87621 3.1152257,3.1152257 0 0 0 -2.876448,-3.33728 z m -0.147919,1.92395 a 1.1857172,1.1857172 0 0 1 0.0052,4e-4 1.1857172,1.1857172 0 0 1 1.09482,1.27022 1.1857172,1.1857172 0 0 1 -1.270203,1.09457 1.1857172,1.1857172 0 0 1 -1.094598,-1.26995 1.1857172,1.1857172 0 0 1 1.264802,-1.09523 z" />
        <g
           id="g2217"
           transform="translate(38.456602,397.91247)">
          <g
             aria-label="Strolabs"
             id="g2213"
             style="font-style:normal;font-variant:normal;font-weight:bold;font-stretch:normal;font-size:25.4px;line-height:1.25;font-family:'Gill Sans';-inkscape-font-specification:'Gill Sans Bold';fill:#ff0951;fill-opacity:1;stroke:none;stroke-width:0.264583">
            <path
               d="m 65.268793,111.58431 q 0,1.6123 -0.830957,2.79052 -0.818554,1.17823 -2.294433,1.81075 -1.475879,0.62011 -3.38584,0.62011 -0.533301,0 -1.314649,-0.0744 -0.768945,-0.062 -2.058789,-0.37207 -1.277441,-0.31006 -2.666503,-0.91777 v -4.2168 q 1.302246,0.80615 2.554882,1.33945 1.265039,0.5333 2.703711,0.5333 1.327051,0 1.711524,-0.43408 0.396875,-0.44648 0.396875,-0.83096 0,-0.69453 -0.669727,-1.16582 -0.669726,-0.48369 -1.947168,-0.99218 -1.413867,-0.59532 -2.480469,-1.28985 -1.066601,-0.70693 -1.74873,-1.76113 -0.669727,-1.0542 -0.669727,-2.49287 0,-1.38906 0.682129,-2.50528 0.682129,-1.12861 2.083594,-1.798335 1.401465,-0.669727 3.423047,-0.669727 1.438672,0 2.654101,0.285254 1.227832,0.272852 2.021582,0.620118 0.79375,0.34726 1.091407,0.5457 v 4.03076 q -1.0542,-0.75654 -2.356446,-1.35185 -1.289843,-0.59531 -2.765722,-0.59531 -0.967383,0 -1.401465,0.37207 -0.434082,0.37207 -0.434082,0.91777 0,0.5085 0.434082,0.88057 0.434082,0.37207 1.550293,0.90537 1.984375,0.93017 3.175,1.67431 1.190625,0.74414 1.860351,1.72393 0.682129,0.96738 0.682129,2.41846 z"
               style="font-style:normal;font-variant:normal;font-weight:bold;font-stretch:normal;font-size:25.4px;font-family:'Gill Sans';-inkscape-font-specification:'Gill Sans Bold';fill:#ff0951;fill-opacity:1;stroke-width:0.264583"
               id="path2199" />
            <path
               d="m 78.006,115.85071 q -0.694531,0.33487 -1.922363,0.64492 -1.21543,0.31006 -2.331641,0.31006 -4.824512,0 -4.824512,-4.71289 v -5.03535 h -2.021582 v -0.78135 l 5.990332,-6.10195 h 0.508496 v 3.78272 h 4.266406 v 3.10058 H 73.40473 v 4.04317 q 0,0.70693 0.08682,1.14101 0.08682,0.43408 0.483691,0.73174 0.409277,0.28525 1.227832,0.28525 1.066602,0 2.80293,-0.89297 z"
               style="font-style:normal;font-variant:normal;font-weight:bold;font-stretch:normal;font-size:25.4px;font-family:'Gill Sans';-inkscape-font-specification:'Gill Sans Bold';fill:#ff0951;fill-opacity:1;stroke-width:0.264583"
               id="path2201" />
            <path
               d="m 91.053264,104.63899 -1.649511,4.47725 q -1.016992,-0.96738 -2.058789,-0.96738 -0.942578,0 -1.63711,0.64492 -0.682129,0.63252 -1.314648,2.35644 v 5.43223 h -4.464844 v -12.62558 h 4.464844 v 3.05097 q 0.42168,-1.12861 1.488281,-2.19521 1.066602,-1.07901 2.505274,-1.07901 0.756543,0 1.314648,0.22325 0.570508,0.22324 1.351855,0.68212 z"
               style="font-style:normal;font-variant:normal;font-weight:bold;font-stretch:normal;font-size:25.4px;font-family:'Gill Sans';-inkscape-font-specification:'Gill Sans Bold';fill:#ff0951;fill-opacity:1;stroke-width:0.264583"
               id="path2203" />
            <path
               d="m 111.32696,116.58245 h -4.47725 V 99.392803 h 4.47725 z"
               style="font-style:normal;font-variant:normal;font-weight:bold;font-stretch:normal;font-size:25.4px;font-family:'Gill Sans';-inkscape-font-specification:'Gill Sans Bold';fill:#ff0951;fill-opacity:1;stroke-width:0.264583"
               id="path2205" />
            <path
               d="m 127.51202,115.94993 q -0.97979,0.38447 -1.81075,0.62012 -0.83095,0.23564 -1.99677,0.23564 -1.10381,0 -1.5379,-0.38447 -0.43408,-0.39687 -0.62011,-0.95498 -0.71934,0.58291 -1.5999,0.96738 -0.88057,0.37207 -2.30684,0.37207 -1.37666,0 -2.23242,-0.47129 -0.84336,-0.48369 -1.19063,-1.20302 -0.33486,-0.73174 -0.33486,-1.50069 0,-1.16582 0.58291,-1.92236 0.59531,-0.76895 1.5875,-1.25264 0.99219,-0.48369 2.6293,-1.00459 0.93017,-0.29765 1.40146,-0.44648 0.48369,-0.16123 0.71934,-0.24805 0.23564,-0.0868 0.49609,-0.22324 0,-0.91777 -0.37207,-1.43867 -0.37207,-0.5209 -1.6123,-0.5209 -1.46348,0 -2.71612,0.64492 -1.25263,0.64492 -2.29443,1.66192 v -3.42305 q 0.83096,-0.59531 1.79834,-0.96738 0.96738,-0.38448 2.02158,-0.57051 1.0542,-0.18604 2.1332,-0.18604 2.74092,0 4.11758,1.0666 1.38906,1.0542 1.38906,2.91456 v 4.87412 q 0,0.69453 0.12403,1.04179 0.13642,0.33487 0.48369,0.33487 0.42168,0 1.14102,-0.35967 z m -6.21358,-2.41846 v -2.98896 q -1.5875,0.64492 -2.31924,1.16582 -0.73174,0.5085 -0.73174,1.38906 0,0.63252 0.35967,0.96739 0.37207,0.33486 0.85576,0.33486 0.45889,0 0.90538,-0.24805 0.45888,-0.26045 0.93017,-0.62012 z"
               style="font-style:normal;font-variant:normal;font-weight:bold;font-stretch:normal;font-size:25.4px;font-family:'Gill Sans';-inkscape-font-specification:'Gill Sans Bold';fill:#ff0951;fill-opacity:1;stroke-width:0.264583"
               id="path2207" />
            <path
               d="m 143.14517,110.35647 q 0,2.19522 -0.85576,3.64629 -0.85576,1.43868 -2.18282,2.1208 -1.32705,0.68213 -2.70371,0.68213 -0.99218,0 -1.72392,-0.22324 -0.71934,-0.23564 -1.12862,-0.49609 -0.39687,-0.27285 -0.83095,-0.64492 v 1.14101 h -4.46485 V 99.392803 h 4.46485 v 5.308207 q 0.49609,-0.38448 1.36426,-0.66973 0.86816,-0.29766 2.00917,-0.29766 1.52549,0 2.69131,0.55811 1.16582,0.5457 1.89756,1.48828 0.74414,0.94258 1.10381,2.1208 0.35967,1.16582 0.35967,2.45566 z m -4.70049,-0.0992 q 0,-1.62471 -0.73174,-2.46807 -0.73174,-0.85576 -1.73633,-0.85576 -1.00459,0 -2.25722,0.80615 v 4.82451 q 0.94258,0.89297 2.25722,0.89297 0.83096,0 1.64952,-0.66973 0.81855,-0.68213 0.81855,-2.53007 z"
               style="font-style:normal;font-variant:normal;font-weight:bold;font-stretch:normal;font-size:25.4px;font-family:'Gill Sans';-inkscape-font-specification:'Gill Sans Bold';fill:#ff0951;fill-opacity:1;stroke-width:0.264583"
               id="path2209" />
            <path
               d="m 155.34288,112.89895 q 0,1.73633 -1.27745,2.82774 -1.26504,1.079 -3.77031,1.079 -1.40146,0 -2.49287,-0.24804 -1.09141,-0.26045 -2.38125,-0.73174 v -3.175 q 1.12861,0.64492 1.95957,0.97978 0.83096,0.33487 1.82315,0.33487 1.67431,0 1.67431,-0.91778 0,-0.31006 -0.24805,-0.5457 -0.23564,-0.24805 -0.84335,-0.5457 -0.59532,-0.31006 -1.59991,-0.73174 -1.24023,-0.5457 -2.1084,-1.46348 -0.86816,-0.91777 -0.86816,-2.24482 0,-0.94258 0.57051,-1.81074 0.58291,-0.86817 1.74873,-1.41387 1.16582,-0.55811 2.81533,-0.55811 0.39688,0 1.00459,0.062 0.62012,0.0496 1.55029,0.28526 0.94258,0.23564 1.78594,0.66973 v 3.08818 q -0.39687,-0.23565 -0.66973,-0.39688 -0.26044,-0.16123 -0.70693,-0.35966 -0.44648,-0.19844 -1.0542,-0.34727 -0.59531,-0.16123 -1.22783,-0.16123 -0.76895,0 -1.0542,0.29766 -0.28525,0.29765 -0.28525,0.59531 0,0.31006 0.29765,0.58291 0.29766,0.26045 1.32705,0.65732 1.48828,0.57051 2.38125,1.17823 0.89297,0.59531 1.26504,1.31464 0.38448,0.71934 0.38448,1.69912 z"
               style="font-style:normal;font-variant:normal;font-weight:bold;font-stretch:normal;font-size:25.4px;font-family:'Gill Sans';-inkscape-font-specification:'Gill Sans Bold';fill:#ff0951;fill-opacity:1;stroke-width:0.264583"
               id="path2211" />
          </g>
          <path
             id="path2215"
             style="fill:#393939;fill-opacity:1;stroke-width:1.45613"
             d="m 98.11959,103.78591 a 6.5098305,6.5098305 0 0 0 -6.509679,6.5102 6.5098305,6.5098305 0 0 0 6.509679,6.50968 6.5098305,6.5098305 0 0 0 6.51019,-6.50968 6.5098305,6.5098305 0 0 0 -6.51019,-6.5102 z m -0.01085,4.03231 a 2.4777717,2.4777717 0 0 1 0.01085,0 2.4777717,2.4777717 0 0 1 2.47788,2.47789 2.4777717,2.4777717 0 0 1 -2.47788,2.47737 2.4777717,2.4777717 0 0 1 -2.477368,-2.47737 2.4777717,2.4777717 0 0 1 2.466518,-2.47789 z" />
        </g>
        <path
           id="path2284"
           style="fill:#393939;fill-opacity:1;stroke-width:0.717179"
           d="m 41.354445,501.28637 -0.525578,0.59453 3.980365,3.52017 0.07374,-0.99426 z" />
      </g>
    </g>
  </g>
</svg>
